<?xml version="1.0" encoding="UTF-8" standalone="no"?>
<svg
   xmlns:dc="http://purl.org/dc/elements/1.1/"
   xmlns:cc="http://creativecommons.org/ns#"
   xmlns:rdf="http://www.w3.org/1999/02/22-rdf-syntax-ns#"
   xmlns:svg="http://www.w3.org/2000/svg"
   xmlns="http://www.w3.org/2000/svg"
   xmlns:xlink="http://www.w3.org/1999/xlink"
   xmlns:sodipodi="http://sodipodi.sourceforge.net/DTD/sodipodi-0.dtd"
   xmlns:inkscape="http://www.inkscape.org/namespaces/inkscape"
   id="generated_logo_1"
   viewBox="0 0 290.48163 100"
   version="1.1"
   sodipodi:docname="logo_transparent.svg"
   width="290.48163"
   height="100">
  <metadata
     id="metadata46">
    <rdf:RDF>
      <cc:Work
         rdf:about="">
        <dc:format>image/svg+xml</dc:format>
        <dc:type
           rdf:resource="http://purl.org/dc/dcmitype/StillImage" />
      </cc:Work>
    </rdf:RDF>
  </metadata>
  <defs
     id="defs44" />
  <sodipodi:namedview
     pagecolor="#ffffff"
     bordercolor="#666666"
     borderopacity="1"
     objecttolerance="10"
     gridtolerance="10"
     guidetolerance="10"
     inkscape:pageopacity="0"
     inkscape:pageshadow="2"
     inkscape:window-width="640"
     inkscape:window-height="480"
     id="namedview42" />
  <style
     type="text/css"
     class="styleimportlogofontmain"
     id="style2">@import url(&quot;https://fonts.googleapis.com/css2?family=Lobster:wght@400&quot;);#generated_logo_1 .maintypo { font-family: Lobster; font-weight: 400; }</style>
  <style
     type="text/css"
     class="styleimportlogofontsub"
     id="style4">@import url(&quot;https://fonts.googleapis.com/css2?family=Montserrat:wght@300;400;500;700;900&quot;);#generated_logo_1 .subtypo { font-family: Montserrat; font-weight: 400; }</style>
  <style
     type="text/css"
     class="styleimportlogopos"
     id="style6" />
  <g
     id="logo-elements"
     transform="translate(50,50)"
     transform-box="stroke-box">
    <g
       id="iconcontainer"
       transform-origin="center"
       transform-box="fill-box">
      <g
         class="iconBGGrpM"
         id="g10">
        <g
           class="iconBGGrp"
           transform="matrix(0.1,0,0,0.1,-50,-50)"
           id="g8" />
      </g>
      <g
         class="iconGrpM"
         id="g28">
        <g
           class="iconGrp"
           transform="matrix(0.1,0,0,0.1,-50,-50)"
           id="g26">
          <g
             class="lg_icon"
             id="lg_icon_43"
             stroke="none"
             stroke-width="1"
             fill="none"
             fill-rule="evenodd">
            <g
               id="0043">
              <defs
                 id="defs13">
                <polygon
                   id="path-1"
                   points="0,0.0004 699.9996,0.0004 699.9996,700 0,700 " />
              </defs>
              <path
                 id="FRAME"
                 style="fill:none"
                 d="M 0,0 V 1000 H 1000 V 0 Z" />
              <g
                 id="Icon"
                 transform="translate(150,150)">
                <path
                   d="m 541.2446,158.7546 120.774,32.519 c -33.581,-65.881 -87.412,-119.712 -153.292,-153.292 z"
                   id="Fill-1"
                   fill="#97c93a" />
                <g
                   id="Group-5">
                  <mask
                     id="mask-2"
                     fill="#ffffff">
                    <use
                       xlink:href="#path-1"
                       id="use17"
                       x="0"
                       y="0"
                       width="100%"
                       height="100%" />
                  </mask>
                  <g
                     id="Clip-4" />
                  <path
                     d="m 541.2446,244.2454 -42.745,158.755 -42.744,-158.755 -158.756,-42.745 158.756,-42.746 34.833,-129.371 C 447.5606,10.4894 400.0056,4e-4 349.9996,4e-4 c -193.299,0 -350,156.7 -350,350 0,193.299 156.701,350 350,350 193.3,0 350,-156.701 350,-350 0,-50.006 -10.489,-97.561 -29.383,-140.589 z"
                     id="Fill-3"
                     fill="#97c93a" />
                </g>
              </g>
            </g>
          </g>
        </g>
      </g>
    </g>
    <g
       id="textlines">
      <g
         id="einsg"
         transform="translate(-10)">
        <g
           aria-label="Mí despensa"
           id="eins"
           style="text-rendering:geometricPrecision">
          <path
             d="m 86.235,-29.045 q -2.66,0.875 -4.13,2.905 -1.435,1.995 -1.435,4.97 0,1.33 0.245,1.82 0.245,0.49 0.245,0.595 -3.745,0 -3.745,-3.185 0,-2.17 1.645,-4.34 1.68,-2.205 4.27,-3.57 2.625,-1.4 5.215,-1.4 1.295,0 2.66,0.49 L 90.4,-12.315 98.1,-30.76 h 5.04 L 99.465,-5 h -5.04 L 96.665,-20.715 90.085,-5 H 85.29 L 85.99,-20.785 80.145,-5 h -2.8 z"
             style="font-weight:400;font-size:35px;font-family:Lobster;letter-spacing:1;fill:#97c93a"
             id="path49" />
          <path
             d="m 110.61883,-31.25 h 3.675 l -4.235,6.615 h -2.625 z m -3.605,26.46 q -1.68,0 -2.73,-1.05 -1.015,-1.05 -1.015,-3.15 0,-0.875 0.28,-2.275 l 2.38,-11.235 h 5.04 l -2.52,11.9 q -0.14,0.525 -0.14,1.12 0,0.7 0.315,1.015 0.35,0.28 1.12,0.28 0.63,0 1.12,-0.21 -0.14,1.75 -1.26,2.695 -1.085,0.91 -2.59,0.91 z"
             style="font-weight:400;font-size:35px;font-family:Lobster;letter-spacing:1;fill:#97c93a"
             id="path51" />
          <path
             d="m 124.65117,-4.79 q -1.995,0 -3.325,-1.365 -1.33,-1.365 -1.33,-4.27 0,-2.59 1.015,-5.425 1.05,-2.87 3.08,-4.83 2.065,-1.995 4.9,-1.995 1.435,0 2.135,0.49 0.7,0.49 0.7,1.295 v 0.14 l 1.715,-8.05 5.18,-0.7 -4.025,18.9 q -0.14,0.525 -0.14,1.12 0,0.7 0.315,1.015 0.35,0.28 1.12,0.28 0.98,0 1.68,-0.84 0.735,-0.84 1.155,-2.24 h 1.47 q -2.135,6.265 -7.035,6.265 -1.435,0 -2.345,-0.77 -0.875,-0.77 -1.085,-2.24 -0.91,1.4 -2.205,2.31 -1.26,0.91 -2.975,0.91 z m 2.275,-3.395 q 0.84,0 1.68,-0.77 0.875,-0.77 1.19,-2.135 v -0.175 l 1.715,-8.015 q -0.315,-1.225 -1.435,-1.225 -1.4,0 -2.52,1.645 -1.12,1.61 -1.75,3.92 -0.63,2.275 -0.63,4.025 0,1.75 0.49,2.24 0.525,0.49 1.26,0.49 z"
             style="font-weight:400;font-size:35px;font-family:Lobster;letter-spacing:1;fill:#97c93a"
             id="path53" />
          <path
             d="m 144.84484,-4.79 q -2.59,0 -4.025,-1.33 -1.435,-1.365 -1.435,-4.235 0,-2.415 0.945,-5.32 0.945,-2.905 3.08,-5.005 2.135,-2.135 5.425,-2.135 3.85,0 3.85,3.36 0,1.96 -1.12,3.605 -1.12,1.645 -2.975,2.66 -1.855,0.98 -3.955,1.12 -0.07,1.05 -0.07,1.4 0,1.715 0.595,2.345 0.595,0.595 1.925,0.595 1.89,0 3.22,-0.875 1.365,-0.875 2.975,-2.66 h 1.19 q -3.885,6.475 -9.625,6.475 z m 0.07,-8.96 q 1.295,-0.07 2.45,-0.91 1.19,-0.84 1.89,-2.135 0.735,-1.295 0.735,-2.73 0,-1.435 -0.875,-1.435 -1.26,0 -2.485,2.205 -1.19,2.205 -1.715,5.005 z"
             style="font-weight:400;font-size:35px;font-family:Lobster;letter-spacing:1;fill:#97c93a"
             id="path55" />
          <path
             d="m 158.29664,-4.79 q -1.68,0 -2.835,-0.63 -1.155,-0.665 -1.715,-1.68 -0.56,-1.05 -0.56,-2.17 0,-1.155 0.56,-1.995 0.525,-0.875 1.295,-1.26 1.365,-2.45 2.38,-4.935 1.015,-2.52 1.925,-5.425 l 5.18,-0.7 q 0.175,4.48 0.595,9.695 0.175,2.1 0.175,3.045 0,0.805 -0.14,1.33 1.645,-0.945 2.52,-1.75 h 1.47 q -2.24,2.59 -5.355,4.375 -1.015,1.085 -2.52,1.61 -1.47,0.49 -2.975,0.49 z m -1.12,-2.765 q 1.295,0 2.17,-0.77 0.875,-0.77 0.875,-2.485 0,-1.05 -0.21,-2.94 -0.35,-3.99 -0.455,-5.355 -0.84,2.765 -2.835,6.615 0.805,0.42 0.805,1.225 0,0.665 -0.455,1.19 -0.42,0.525 -1.085,0.525 -0.735,0 -0.945,-0.455 0,1.26 0.49,1.855 0.525,0.595 1.645,0.595 z"
             style="font-weight:400;font-size:35px;font-family:Lobster;letter-spacing:1;fill:#97c93a"
             id="path57" />
          <path
             d="m 171.36508,-23.795 h 5.04 l -0.56,2.625 q 1.75,-1.505 4.095,-1.505 1.96,0 3.115,1.295 1.155,1.295 1.155,4.235 0,2.765 -0.805,5.6 -0.805,2.8 -2.73,4.795 -1.925,1.96 -5.075,1.96 -2.24,0 -2.975,-1.26 l -1.82,8.54 -5.285,1.26 z m 3.15,15.96 q 1.68,0 2.765,-1.575 1.12,-1.575 1.61,-3.745 0.525,-2.205 0.525,-4.095 0,-2.905 -1.75,-2.905 -0.63,0 -1.295,0.455 -0.63,0.455 -1.12,1.26 l -2.065,9.8 q 0.28,0.805 1.33,0.805 z"
             style="font-weight:400;font-size:35px;font-family:Lobster;letter-spacing:1;fill:#97c93a"
             id="path59" />
          <path
             d="m 191.11633,-4.79 q -2.59,0 -4.025,-1.33 -1.435,-1.365 -1.435,-4.235 0,-2.415 0.945,-5.32 0.945,-2.905 3.08,-5.005 2.135,-2.135 5.425,-2.135 3.85,0 3.85,3.36 0,1.96 -1.12,3.605 -1.12,1.645 -2.975,2.66 -1.855,0.98 -3.955,1.12 -0.07,1.05 -0.07,1.4 0,1.715 0.595,2.345 0.595,0.595 1.925,0.595 1.89,0 3.22,-0.875 1.365,-0.875 2.975,-2.66 h 1.19 q -3.885,6.475 -9.625,6.475 z m 0.07,-8.96 q 1.295,-0.07 2.45,-0.91 1.19,-0.84 1.89,-2.135 0.735,-1.295 0.735,-2.73 0,-1.435 -0.875,-1.435 -1.26,0 -2.485,2.205 -1.19,2.205 -1.715,5.005 z"
             style="font-weight:400;font-size:35px;font-family:Lobster;letter-spacing:1;fill:#97c93a"
             id="path61" />
          <path
             d="m 213.21312,-4.79 q -2.135,0 -3.14999,-1.12 -0.98001,-1.155 -0.98001,-2.835 0,-0.735 0.175,-1.645 0.175,-0.945 0.35,-1.82 0.21,-0.875 0.28,-1.12 0.28,-1.225 0.525,-2.415 0.245,-1.19 0.245,-1.925 0,-1.785 -1.26,-1.785 -0.91,0 -1.61,0.91 -0.7,0.875 -1.12,2.31 l -2.38,11.235 h -5.04 l 3.71,-17.5 h 5.04 l -0.385,1.82 q 1.75,-1.96 4.095,-1.96 1.785,0 2.835,0.98 1.05,0.98 1.05,2.975 0,1.015 -0.245,2.275 -0.245,1.225 -0.7,3.01 -0.28,1.085 -0.525,2.135 -0.21,1.015 -0.21,1.61 0,0.7 0.315,1.085 0.315,0.385 1.08501,0.385 1.04999,0 1.67999,-0.735 0.63,-0.77 1.26,-2.345 h 1.47 q -1.295,3.85 -3.01,5.18 -1.68,1.295 -3.5,1.295 z"
             style="font-weight:400;font-size:35px;font-family:Lobster;letter-spacing:1;fill:#97c93a"
             id="path63" />
          <path
             d="m 223.2732,-4.79 q -1.68,0 -2.835,-0.63 -1.155,-0.665 -1.715,-1.68 -0.56,-1.05 -0.56,-2.17 0,-1.155 0.56,-1.995 0.525,-0.875 1.295,-1.26 1.365,-2.45 2.38,-4.935 1.015,-2.52 1.925,-5.425 l 5.18,-0.7 q 0.175,4.48 0.595,9.695 0.175,2.1 0.175,3.045 0,0.805 -0.14,1.33 1.645,-0.945 2.52,-1.75 h 1.47 q -2.24,2.59 -5.355,4.375 -1.015,1.085 -2.52,1.61 -1.47,0.49 -2.975,0.49 z m -1.12,-2.765 q 1.295,0 2.17,-0.77 0.875,-0.77 0.875,-2.485 0,-1.05 -0.21,-2.94 -0.35,-3.99 -0.455,-5.355 -0.84,2.765 -2.835,6.615 0.805,0.42 0.805,1.225 0,0.665 -0.455,1.19 -0.42,0.525 -1.085,0.525 -0.735,0 -0.945,-0.455 0,1.26 0.49,1.855 0.525,0.595 1.645,0.595 z"
             style="font-weight:400;font-size:35px;font-family:Lobster;letter-spacing:1;fill:#97c93a"
             id="path65" />
          <path
             d="m 237.88164,-4.79 q -1.995,0 -3.325,-1.365 -1.33,-1.365 -1.33,-4.27 0,-2.59 1.015,-5.425 1.05,-2.87 3.08,-4.83 2.065,-1.995 4.9,-1.995 1.435,0 2.135,0.49 0.7,0.49 0.7,1.295 v 0.245 l 0.385,-1.855 h 5.04 l -2.52,11.9 q -0.14,0.525 -0.14,1.12 0,0.7 0.315,1.015 0.35,0.28 1.12,0.28 0.49,0 0.77,-0.14 -0.77,1.96 -1.47,2.765 -0.7,0.77 -2.03,0.77 -1.435,0 -2.345,-0.84 -0.875,-0.875 -1.085,-2.415 -2.135,3.255 -5.215,3.255 z m 2.275,-3.395 q 0.875,0 1.715,-0.805 0.875,-0.84 1.19,-2.275 l 1.68,-7.91 q 0,-0.455 -0.35,-0.875 -0.35,-0.455 -1.085,-0.455 -1.4,0 -2.52,1.645 -1.12,1.61 -1.75,3.92 -0.63,2.275 -0.63,4.025 0,1.75 0.49,2.24 0.525,0.49 1.26,0.49 z"
             style="font-weight:400;font-size:35px;font-family:Lobster;letter-spacing:1;fill:#97c93a"
             id="path67" />
        </g>
      </g>
      <g
         id="zweig"
         transform="translate(-10,5)">
        <g
           aria-label="miscelánea"
           id="zwei"
           style="dominant-baseline:text-before-edge;text-rendering:geometricPrecision">
          <path
             d="m 93.875,6.6023369 q 2.475,0 3.875,1.425 1.425,1.425 1.425,4.2000001 v 7.625 H 97.4 v -7.45 q 0,-2.05 -1,-3.1250001 -0.975,-1.075 -2.775,-1.075 -2.05,0 -3.225,1.275 -1.175,1.2500001 -1.175,3.4750001 v 6.9 H 87.45 v -7.45 q 0,-2.05 -1,-3.1250001 -0.975,-1.075 -2.8,-1.075 -2.025,0 -3.225,1.275 -1.175,1.2500001 -1.175,3.4750001 v 6.9 H 77.475 V 6.7023369 h 1.7 v 2.4 q 0.7,-1.2 1.95,-1.85 1.25,-0.65 2.875,-0.65 1.65,0 2.85,0.7 1.225,0.7 1.825,2.075 0.725,-1.3 2.075,-2.025 1.375,-0.75 3.125,-0.75 z"
             style="font-weight:400;font-size:25px;font-family:Montserrat;letter-spacing:1;dominant-baseline:text-before-edge;fill:#97c93a"
             id="path70" />
          <path
             d="m 104.98867,6.7023369 h 1.775 V 19.852337 h -1.775 z m 0.9,-2.875 q -0.55,0 -0.925,-0.375 -0.375,-0.375 -0.375,-0.9 0,-0.5 0.375,-0.875 0.375,-0.375 0.925,-0.375 0.55,0 0.925,0.375 0.375,0.35 0.375,0.85 0,0.55 -0.375,0.925 -0.375,0.375 -0.925,0.375 z"
             style="font-weight:400;font-size:25px;font-family:Montserrat;letter-spacing:1;dominant-baseline:text-before-edge;fill:#97c93a"
             id="path72" />
          <path
             d="m 116.25195,19.977337 q -1.6,0 -3.075,-0.45 -1.45,-0.475 -2.275,-1.175 l 0.8,-1.4 q 0.825,0.65 2.075,1.075 1.25,0.4 2.6,0.4 1.8,0 2.65,-0.55 0.875,-0.575 0.875,-1.6 0,-0.725 -0.475,-1.125 -0.475,-0.425 -1.2,-0.625 -0.725,-0.225 -1.925,-0.425 -1.6,-0.3 -2.575,-0.6 -0.975,-0.325 -1.675,-1.075 -0.675,-0.75 -0.675,-2.075 0,-1.6500001 1.375,-2.7000001 1.375,-1.05 3.825,-1.05 1.275,0 2.55,0.35 1.275,0.325 2.1,0.875 l -0.775,1.425 q -1.625,-1.125 -3.875,-1.125 -1.7,0 -2.575,0.6 -0.85,0.6 -0.85,1.5750001 0,0.75 0.475,1.2 0.5,0.45 1.225,0.675 0.725,0.2 2,0.425 1.575,0.3 2.525,0.6 0.95,0.3 1.625,1.025 0.675,0.725 0.675,2 0,1.725 -1.45,2.75 -1.425,1 -3.975,1 z"
             style="font-weight:400;font-size:25px;font-family:Montserrat;letter-spacing:1;dominant-baseline:text-before-edge;fill:#97c93a"
             id="path74" />
          <path
             d="m 131.38398,19.977337 q -1.95,0 -3.5,-0.85 -1.525,-0.85 -2.4,-2.375 -0.875,-1.55 -0.875,-3.475 0,-1.925 0.875,-3.4500001 0.875,-1.525 2.4,-2.375 1.55,-0.85 3.5,-0.85 1.7,0 3.025,0.675 1.35,0.65 2.125,1.925 l -1.325,0.9000001 q -0.65,-0.9750001 -1.65,-1.4500001 -1,-0.5 -2.175,-0.5 -1.425,0 -2.575,0.65 -1.125,0.625 -1.775,1.8000001 -0.625,1.175 -0.625,2.675 0,1.525 0.625,2.7 0.65,1.15 1.775,1.8 1.15,0.625 2.575,0.625 1.175,0 2.175,-0.475 1,-0.475 1.65,-1.45 l 1.325,0.9 q -0.775,1.275 -2.125,1.95 -1.35,0.65 -3.025,0.65 z"
             style="font-weight:400;font-size:25px;font-family:Montserrat;letter-spacing:1;dominant-baseline:text-before-edge;fill:#97c93a"
             id="path76" />
          <path
             d="m 152.20234,13.827337 h -11 q 0.15,2.05 1.575,3.325 1.425,1.25 3.6,1.25 1.225,0 2.25,-0.425 1.025,-0.45 1.775,-1.3 l 1,1.15 q -0.875,1.05 -2.2,1.6 -1.3,0.55 -2.875,0.55 -2.025,0 -3.6,-0.85 -1.55,-0.875 -2.425,-2.4 -0.875,-1.525 -0.875,-3.45 0,-1.925 0.825,-3.4500001 0.85,-1.525 2.3,-2.375 1.475,-0.85 3.3,-0.85 1.825,0 3.275,0.85 1.45,0.85 2.275,2.375 0.825,1.5000001 0.825,3.4500001 z m -6.35,-5.7000001 q -1.9,0 -3.2,1.225 -1.275,1.2000001 -1.45,3.1500001 h 9.325 q -0.175,-1.95 -1.475,-3.1500001 -1.275,-1.225 -3.2,-1.225 z"
             style="font-weight:400;font-size:25px;font-family:Montserrat;letter-spacing:1;dominant-baseline:text-before-edge;fill:#97c93a"
             id="path78" />
          <path
             d="m 156.84023,1.3023369 h 1.775 V 19.852337 h -1.775 z"
             style="font-weight:400;font-size:25px;font-family:Montserrat;letter-spacing:1;dominant-baseline:text-before-edge;fill:#97c93a"
             id="path80" />
          <path
             d="m 169.17852,6.6023369 q 2.575,0 3.95,1.3 1.375,1.275 1.375,3.8000001 v 8.15 h -1.7 v -2.05 q -0.6,1.025 -1.775,1.6 -1.15,0.575 -2.75,0.575 -2.2,0 -3.5,-1.05 -1.3,-1.05 -1.3,-2.775 0,-1.675 1.2,-2.7 1.225,-1.025 3.875,-1.025 h 4.175 v -0.8 q 0,-1.7000001 -0.95,-2.5750001 -0.95,-0.9 -2.775,-0.9 -1.25,0 -2.4,0.425 -1.15,0.4 -1.975,1.125 l -0.8,-1.325 q 1,-0.85 2.4,-1.3 1.4,-0.475 2.95,-0.475 z m -0.625,11.9750001 q 1.5,0 2.575,-0.675 1.075,-0.7 1.6,-2 v -2.15 h -4.125 q -3.375,0 -3.375,2.35 0,1.15 0.875,1.825 0.875,0.65 2.45,0.65 z m 2.475,-17.0250001 h 2.375 l -4.05,3.1 h -1.75 z"
             style="font-weight:400;font-size:25px;font-family:Montserrat;letter-spacing:1;dominant-baseline:text-before-edge;fill:#97c93a"
             id="path82" />
          <path
             d="m 187.02461,6.6023369 q 2.475,0 3.925,1.45 1.475,1.425 1.475,4.1750001 v 7.625 h -1.775 v -7.45 q 0,-2.05 -1.025,-3.1250001 -1.025,-1.075 -2.925,-1.075 -2.125,0 -3.375,1.275 -1.225,1.2500001 -1.225,3.4750001 v 6.9 h -1.775 V 6.7023369 h 1.7 v 2.425 q 0.725,-1.2 2,-1.85 1.3,-0.675 3,-0.675 z"
             style="font-weight:400;font-size:25px;font-family:Montserrat;letter-spacing:1;dominant-baseline:text-before-edge;fill:#97c93a"
             id="path84" />
          <path
             d="m 209.7668,13.827337 h -11 q 0.15,2.05 1.575,3.325 1.425,1.25 3.6,1.25 1.225,0 2.25,-0.425 1.025,-0.45 1.775,-1.3 l 1,1.15 q -0.875,1.05 -2.2,1.6 -1.3,0.55 -2.875,0.55 -2.025,0 -3.6,-0.85 -1.55,-0.875 -2.425,-2.4 -0.875,-1.525 -0.875,-3.45 0,-1.925 0.825,-3.4500001 0.85,-1.525 2.3,-2.375 1.475,-0.85 3.3,-0.85 1.825,0 3.275,0.85 1.45,0.85 2.275,2.375 0.825,1.5000001 0.825,3.4500001 z m -6.35,-5.7000001 q -1.9,0 -3.2,1.225 -1.275,1.2000001 -1.45,3.1500001 h 9.325 q -0.175,-1.95 -1.475,-3.1500001 -1.275,-1.225 -3.2,-1.225 z"
             style="font-weight:400;font-size:25px;font-family:Montserrat;letter-spacing:1;dominant-baseline:text-before-edge;fill:#97c93a"
             id="path86" />
          <path
             d="m 218.61406,6.6023369 q 2.575,0 3.95,1.3 1.375,1.275 1.375,3.8000001 v 8.15 h -1.7 v -2.05 q -0.6,1.025 -1.775,1.6 -1.15,0.575 -2.75,0.575 -2.2,0 -3.5,-1.05 -1.3,-1.05 -1.3,-2.775 0,-1.675 1.2,-2.7 1.225,-1.025 3.875,-1.025 h 4.175 v -0.8 q 0,-1.7000001 -0.95,-2.5750001 -0.95,-0.9 -2.775,-0.9 -1.25,0 -2.4,0.425 -1.15,0.4 -1.975,1.125 l -0.8,-1.325 q 1,-0.85 2.4,-1.3 1.4,-0.475 2.95,-0.475 z m -0.625,11.9750001 q 1.5,0 2.575,-0.675 1.075,-0.7 1.6,-2 v -2.15 h -4.125 q -3.375,0 -3.375,2.35 0,1.15 0.875,1.825 0.875,0.65 2.45,0.65 z"
             style="font-weight:400;font-size:25px;font-family:Montserrat;letter-spacing:1;dominant-baseline:text-before-edge;fill:#97c93a"
             id="path88" />
        </g>
      </g>
    </g>
  </g>
</svg>
